<?xml version="1.0" encoding="iso-8859-1"?>
<!-- Uploaded to: SVG Repo, www.svgrepo.com, Generator: SVG Repo Mixer Tools -->
<svg version="1.1" id="Layer_1" xmlns="http://www.w3.org/2000/svg" xmlns:xlink="http://www.w3.org/1999/xlink" 
	 viewBox="0 0 512 512" xml:space="preserve">
<path d="M494.75,24.653c-1.365-7.336-6.654-14.928-13.819-19.791c-5.801-4.009-12.284-5.63-18.085-4.521
	c-324.585,60.311-325.95,115.503-326.462,136.573c-0.256,8.53-0.853,33.695,87.182,70.974L96.12,335.333
	c-1.024,1.109-1.791,2.389-2.133,3.839l-25.591,93.835c-0.853,2.9,0,6.057,2.133,8.275c1.621,1.621,3.839,2.474,6.057,2.474
	c0.768,0,1.535-0.085,2.218-0.341l93.75-25.506c1.365-0.341,2.73-1.109,3.839-2.218c0.085,0,0.085,0,0.085,0l168.648-168.733
	c38.131,15.014,58.093,29.942,59.458,44.359c4.436,48.283-97.93,116.441-192.533,147.407
	c-75.836,24.824-148.345,23.459-168.818,22.435c-13.99-0.768-25.677,9.895-26.359,23.885c-0.682,13.905,10.066,25.762,23.971,26.445
	C46.643,511.744,54.321,512,63.534,512c39.581,0,100.148-4.436,164.212-25.336c95.797-31.392,235.271-110.47,226.996-199.955
	c-3.753-41.032-40.69-64.149-71.144-78.225l23.203-23.118c3.327-3.327,3.327-8.786,0-12.113l-68.244-68.244
	c-3.327-3.327-8.786-3.327-12.113,0l-64.405,64.405c-20.985-7.763-56.728-23.459-71.4-32.842
	c14.758-11.687,72.083-43.164,283.895-82.575c6.654-1.194,12.369-4.948,16.208-10.493C494.494,37.96,495.944,31.306,494.75,24.653z
	 M101.836,419.529l-9.554-9.554l2.9-10.663l11.346-41.458l47.515,47.43L101.836,419.529z M437.766,288.33
	c6.91,74.727-121.815,151.416-215.31,182.041c-61.931,20.303-120.621,24.568-158.923,24.568c-8.872,0-16.293-0.256-21.838-0.512
	c-4.521-0.256-7.933-4.095-7.763-8.53c0.256-4.436,3.753-7.763,8.189-7.763h0.341c21.156,1.109,96.224,2.559,174.875-23.203
	c85.902-28.151,210.191-100.063,204.22-165.15c-1.962-20.814-22.094-38.643-63.296-55.875l12.454-12.454
	C413.966,240.474,435.292,261.715,437.766,288.33z M332.5,123.095l56.216,56.216l-30.624,30.624l-56.216-56.216L332.5,123.095z
	 M289.848,165.747l56.216,56.216L332.5,235.526l-56.216-56.216L289.848,165.747z M264.256,191.338l56.216,56.216L170.421,397.606
	l-13.478-13.478l-12.113-12.113l-30.624-30.624L264.256,191.338z M476.665,33.866c-1.28,1.791-3.071,2.986-5.204,3.412
	C263.659,75.921,199.68,107.74,180.06,123.18c-4.265,3.412-6.654,8.53-6.398,13.99c0.256,5.545,3.242,10.663,7.848,13.649
	c14.246,9.298,45.382,23.288,67.306,31.819l-12.199,12.199c-61.59-25.25-83.513-46.15-83.172-57.837
	c1.28-51.268,170.695-93.494,312.557-119.939c1.024-0.171,2.9,0.256,5.289,1.877c3.753,2.559,6.227,6.398,6.654,8.872
	C478.371,29.942,477.86,32.074,476.665,33.866z"/>
<g>
	<path style="fill:#4B1DA1;" d="M477.945,27.809c0.427,2.133-0.085,4.265-1.28,6.057c-1.28,1.791-3.071,2.986-5.204,3.412
		C263.659,75.921,199.68,107.74,180.06,123.18c-4.265,3.412-6.654,8.53-6.398,13.99c0.256,5.545,3.242,10.663,7.848,13.649
		c14.246,9.298,45.382,23.288,67.306,31.819l-12.199,12.199c-61.59-25.25-83.513-46.15-83.172-57.837
		c1.28-51.268,170.695-93.494,312.557-119.939c1.024-0.171,2.9,0.256,5.289,1.877C475.045,21.496,477.518,25.335,477.945,27.809z"/>
	<path style="fill:#4B1DA1;" d="M222.457,470.371c-61.931,20.303-120.621,24.568-158.923,24.568c-8.872,0-16.293-0.256-21.838-0.512
		c-4.521-0.256-7.933-4.095-7.763-8.53c0.256-4.436,3.753-7.763,8.189-7.763h0.341c21.156,1.109,96.224,2.559,174.875-23.203
		c85.902-28.151,210.191-100.063,204.22-165.15c-1.962-20.814-22.094-38.643-63.296-55.875l12.454-12.454
		c43.25,19.023,64.576,40.264,67.05,66.879C444.676,363.057,315.951,439.746,222.457,470.371z"/>
</g>
<rect x="345.002" y="178.353" transform="matrix(-0.7071 0.7071 -0.7071 -0.7071 758.7733 61.4691)" style="fill:#9B0045;" width="43.309" height="19.057"/>
<polygon style="fill:#CC004E;" points="375.238,165.832 344.613,196.457 332.5,184.343 301.876,153.719 332.5,123.095 "/>
<rect x="322.942" y="212.473" transform="matrix(-0.7071 0.7071 -0.7071 -0.7071 724.6501 143.8439)" style="fill:#7E939E;" width="19.185" height="19.057"/>
<polygon style="fill:#AFAFAF;" points="332.585,208.485 319.022,222.048 306.909,209.935 276.284,179.31 289.848,165.747 "/>
<polygon style="fill:#7E939E;" points="154.042,405.283 101.836,419.529 98.85,416.543 143.123,394.364 "/>
<polygon style="fill:#AFAFAF;" points="143.123,394.364 98.85,416.543 95.352,413.046 92.281,409.975 92.793,408.013 
	95.182,399.312 106.527,357.854 130.413,381.739 "/>
<rect x="132.6" y="306.35" transform="matrix(-0.7071 0.7071 -0.7071 -0.7071 630.8491 370.451)" style="fill:#F6981E;" width="212.202" height="19.057"/>
<polygon style="fill:#FDB50D;" points="306.994,234.076 156.943,384.128 144.829,372.014 114.205,341.39 264.256,191.338 "/>
</svg>